<svg width="383" height="335" viewBox="0 0 383 335" fill="none" xmlns="http://www.w3.org/2000/svg">
<path fill-rule="evenodd" clip-rule="evenodd" d="M190.395 323.259C171.642 320.117 155.437 309.401 136.491 307.552C106.659 304.642 63.009 333.594 47.6626 309.335C30.9454 282.908 91.1296 255.051 84.2576 224.981C77.5204 195.501 18.6745 194.289 14.5373 164.386C11.113 139.637 45.3086 122.814 68.4332 110.608C89.1572 99.6703 114.036 99.7917 137.789 99.334C155.829 98.9864 172.725 111.7 190.395 108.258C214.371 103.588 230.162 76.2908 254.643 76.5736C277.812 76.8414 313.299 87.8697 313.591 109.682C314.02 141.823 243.77 158.086 256.134 188.049C271.334 224.886 346.405 206.031 367.457 240.221C380.989 262.199 349.705 290.015 328.821 306.102C308.508 321.749 280.425 324.08 254.403 327.306C232.933 329.967 211.716 326.831 190.395 323.259Z" fill="url(#paint0_linear_32_501)"/>
<mask id="mask0_32_501" style="mask-type:alpha" maskUnits="userSpaceOnUse" x="0" y="0" width="383" height="335">
<rect width="383" height="335" rx="30" fill="#C4C4C4"/>
</mask>
<g mask="url(#mask0_32_501)">
<path d="M372.716 101.126C372.716 101.126 403.283 106.056 415.384 115.571C427.486 125.086 423.325 149.61 420.171 163.728C417.016 177.845 408.558 188.052 418.566 192.982C428.574 197.912 432.163 193.346 432.163 193.346C432.163 193.346 418.566 208.846 404.235 210.975C389.903 213.103 369.969 201.096 366.815 190.526C363.66 179.956 361.539 164.073 364.095 153.139C366.652 142.205 371.655 138.494 374.185 131.09C376.714 123.685 374.701 111.35 374.701 111.35L372.716 101.126Z" fill="#3B2645"/>
<path d="M328.445 368.581C389.572 368.581 439.126 340.797 439.126 306.525C439.126 272.252 389.572 244.469 328.445 244.469C267.317 244.469 217.763 272.252 217.763 306.525C217.763 340.797 267.317 368.581 328.445 368.581Z" fill="#AB8DA8"/>
<path d="M234.569 160.599L232.149 159.526L220.863 148.21L229.892 136.021L250.179 135.129L252.599 136.221L234.569 160.599Z" fill="#393762"/>
<path d="M254.856 159.726L234.568 160.599L223.283 149.283L232.284 137.094L252.598 136.221L263.857 147.537L254.856 159.726Z" fill="#636183"/>
<path d="M303.698 155.451C298.626 159.195 294.294 163.359 290.808 167.841C283.955 176.21 266.632 187.853 263.423 190.218C261.911 191.49 259.974 192.506 257.766 193.183C254.711 187.199 252.294 181.077 250.533 174.863C248.928 167.586 246.508 153.286 246.508 153.286L252.953 144.663C252.953 144.663 247.704 137.641 245.692 137.131C243.68 136.622 239.655 137.386 233.618 140.897C227.58 144.408 225.133 147.901 227.961 152.195C230.789 156.488 236.827 160.818 236.12 167.823C235.412 174.827 235.739 199.369 239.356 207.447C242.973 215.524 242.592 215.543 247.514 215.543C252.436 215.543 266.55 211.486 281.371 206.446C290.052 203.545 297.421 199.15 302.719 193.711L303.698 155.451Z" fill="#FFEDE5"/>
<path d="M334.318 151.151C327.556 150.382 320.638 150.468 313.923 151.406C303.915 153.025 298.721 157.3 296.708 165.068C294.696 172.837 287.517 182.479 292.33 189.756C297.144 197.033 301.522 202.618 301.93 208.495C302.125 214.104 301.735 219.715 300.76 225.287C299.965 226.4 299.056 227.476 298.041 228.507C298.041 228.507 297.225 232.782 277.21 229.035C257.195 225.287 231.605 226.36 205.199 230.381C178.793 234.401 164.788 237.658 163.591 243.498C162.395 249.338 162.395 285.778 164.788 296.494C166.134 303.709 165.868 311.017 163.999 318.18C157.367 321.267 150.255 323.866 142.787 325.93C131.583 328.877 125.192 330.478 127.178 333.207C129.163 335.936 136.777 336.427 146.377 336.427C155.977 336.427 169.193 335.899 169.193 335.899C169.193 335.899 157.2 340.975 149.178 344.45C141.156 347.925 133.596 348.744 137.185 352.491C140.775 356.239 175.258 355.166 183.606 355.166C191.955 355.166 201.609 353.019 202.398 350.618C203.186 348.216 200.005 339.902 200.005 336.7C200.005 333.498 198.808 319.289 203.594 312.867C208.381 306.445 215.614 287.707 215.206 280.484C214.798 273.261 214.01 268.713 214.01 268.713C214.01 268.713 259.969 272.934 277.917 277.209C295.865 281.485 335.923 284.978 354.742 278.828C373.56 272.679 381.147 265.166 378.346 254.468C375.545 243.771 367.931 236.803 369.943 224.213C371.956 211.624 371.929 199.326 376.742 193.176C381.555 187.027 392.352 176.039 391.536 168.816C390.72 161.594 370.732 154.262 360.724 151.678C350.717 149.095 334.318 151.151 334.318 151.151Z" fill="#FFEDE5"/>
<path d="M163.483 244.141C162.286 250.018 162.286 286.421 164.679 297.137C166.025 304.352 165.759 311.66 163.89 318.823C157.258 321.91 150.146 324.509 142.679 326.573C131.475 329.52 125.084 331.121 127.069 333.85C129.054 336.579 136.669 337.07 146.268 337.07C154.427 337.07 165.114 336.688 168.187 336.561C170.118 336.143 173.898 335.251 173.898 334.742C173.898 334.232 177.08 314.73 177.488 295.918C177.896 277.107 181.105 255.384 181.105 255.384L177.515 245.742C174.221 243.673 170.674 241.792 166.909 240.121C165.079 241.14 163.862 242.568 163.483 244.141Z" fill="#FFEDE5"/>
<path d="M173.082 327.647C173.082 327.647 171.886 325.828 169.873 322.298C169.519 321.382 168.757 320.559 167.689 319.939C166.621 319.318 165.296 318.929 163.89 318.823C157.258 321.911 150.146 324.509 142.679 326.573C131.475 329.521 125.084 331.122 127.069 333.851C129.054 336.58 136.669 337.071 146.268 337.071C154.427 337.071 165.114 336.689 168.187 336.561C170.118 336.143 173.898 335.251 173.898 334.742C173.898 334.451 174.279 331.831 174.823 327.774L173.082 327.647Z" fill="#3B2645"/>
<path d="M327.52 237.973C317.215 234.344 308.242 229.23 301.25 223C301.033 224.583 300.842 225.693 300.733 225.929C299.938 227.043 299.029 228.119 298.014 229.149C298.014 229.149 297.198 233.425 277.183 229.677C257.168 225.929 231.578 227.003 205.172 231.023C178.766 235.044 164.761 238.3 163.564 244.14C163.564 244.413 163.564 244.759 163.401 245.159C164.942 246.662 166.603 248.107 168.378 249.489C171.862 252.101 176.224 254.121 181.105 255.384C182.328 259.131 189.916 270.902 201.12 270.902C212.324 270.902 213.928 269.301 213.928 269.301C213.928 269.301 259.969 273.576 277.917 277.852C295.866 282.127 335.923 285.62 354.742 279.471C373.56 273.322 381.148 265.808 378.347 255.111C377.103 251.001 375.44 246.952 373.37 242.994C361.187 243.431 341.552 243.158 327.52 237.973Z" fill="#3B2645"/>
<path d="M300.76 225.93C299.965 227.044 299.056 228.12 298.041 229.15C298.041 229.15 297.225 233.426 277.21 229.678C257.194 225.93 231.604 227.003 205.198 231.024C178.792 235.045 164.787 238.301 163.591 244.141C163.346 245.324 163.156 247.78 163.02 250.927C168.281 253.546 174.56 255.094 181.104 255.384C183.966 252.078 188.097 249.342 193.07 247.462C198.042 245.581 203.675 244.623 209.386 244.687C229.619 244.687 315.146 245.742 315.146 245.742L326.568 228.332C326.568 228.332 312.97 221.909 301.793 217.725C301.44 221.837 300.95 225.475 300.76 225.93Z" fill="#3B2645"/>
<path d="M370.106 227.331C371.139 224.366 391.535 208.684 393.575 203.226C395.614 197.768 403.093 181.158 396.294 171.607C389.496 162.055 380.984 159.781 380.984 159.781C374.737 156.71 367.94 154.173 360.751 152.231C350.771 149.557 334.345 151.704 334.345 151.704C327.583 150.934 320.664 151.021 313.949 151.958C303.942 153.577 298.747 157.853 296.735 165.621C294.723 173.389 287.516 183.123 292.33 190.4C297.143 197.677 301.521 203.262 301.929 209.138C302.125 214.747 301.734 220.358 300.76 225.93C299.964 227.044 299.056 228.12 298.04 229.151V229.26C301.005 233.353 307.803 241.995 315.282 245.742C322.302 245.887 329.053 247.582 334.481 250.564C342.639 255.385 352.511 256.44 363.307 256.44C368.431 256.303 373.501 255.691 378.373 254.621C375.654 245.088 369.372 238.447 369.807 227.932C369.966 227.747 370.068 227.543 370.106 227.331Z" fill="#AB8DA8"/>
<path d="M365.755 135.62C365.755 135.62 375.79 125.305 377.394 116.482C378.999 107.658 376.606 99.4349 362.193 94.2681C347.779 89.1013 326.568 94.2681 320.177 99.4349C313.786 104.602 314.575 114.426 312.97 116.573C311.366 118.719 304.159 122.194 304.975 123.54C305.791 124.887 310.985 126.724 310.985 126.724L313.705 135.02C314.493 137.44 316.886 140.642 319.688 140.642C323.495 140.376 327.273 139.951 331 139.368C331 139.368 331.789 147.737 329.423 151.103C326.241 155.651 309.843 182.904 317.05 185.669C324.256 188.434 354.741 167.04 363.525 162.491C372.309 157.943 360.806 152.322 360.806 152.322C360.806 152.322 356.862 152.212 358.467 145.517C359.171 141.765 361.738 138.28 365.755 135.62Z" fill="#FFEDE5"/>
<path d="M183.497 355.754C191.901 355.754 201.5 353.608 202.289 351.206C202.942 349.278 201.038 343.62 200.222 339.763C198.566 340.16 196.837 340.405 195.082 340.491C190.788 340.589 186.493 340.32 182.301 339.69C182.206 338.582 181.8 337.496 181.104 336.488C179.908 334.669 173.925 334.669 173.925 334.669L167.317 336.597H169.112C169.112 336.597 157.119 341.673 149.096 345.148C141.074 348.623 133.514 349.442 137.104 353.189C140.693 356.937 175.094 355.754 183.497 355.754Z" fill="#3B2645"/>
<path d="M382.562 118.338C384.139 109.514 376.606 99.4351 362.193 94.2683C350.146 90.0112 333.394 92.8857 324.42 96.9063C326.214 97.1236 327.828 97.7703 328.961 98.7256C334.754 102.965 331.681 110.715 336.875 114.244C342.069 117.774 344.761 116.718 344.761 116.718C344.761 116.718 350.581 110.369 353.192 116.718C355.802 123.068 352.158 125.815 349.52 126.579C347.644 127.052 345.704 127.405 343.728 127.634C343.728 127.634 357.869 135.985 365.756 135.694C365.756 135.621 380.957 127.179 382.562 118.338Z" fill="#3B2645"/>
<path d="M241.504 164.419L239.111 163.328L227.825 152.012L236.826 139.822L257.114 138.949L259.534 140.023L241.504 164.419Z" fill="#393762"/>
<path d="M261.817 163.529L241.503 164.42L230.244 153.086L239.246 140.897L259.533 140.024L270.819 151.34L261.817 163.529Z" fill="#636183"/>
<path d="M402.984 265.809C400.158 261.358 398.52 256.611 398.143 251.782C398.143 246.852 389.685 234.135 389.685 231.315C390.83 220.238 392.863 209.209 395.777 198.277C400.4 187.871 400.019 176.609 396.294 171.606C392.568 166.603 377.584 167.513 373.505 175.7C369.425 183.887 369.67 199.769 369.67 199.769C368.31 206.901 367.386 222.801 366.951 232.352C366.652 240.848 369.344 249.417 375.435 255.53C384.056 264.19 388.135 275.542 390.773 275.542C393.411 275.542 407.389 274.378 407.389 274.378C407.389 274.378 408.123 273.414 402.984 265.809Z" fill="#FFEDE5"/>
<path d="M428.601 276.67H374.321V281.6H428.601V276.67Z" fill="#636183"/>
<path d="M375.354 265.755H351.641V291.843H375.354V265.755Z" fill="#636183"/>
</g>
<defs>
<linearGradient id="paint0_linear_32_501" x1="14.2987" y1="76.5715" x2="486.542" y2="128.315" gradientUnits="userSpaceOnUse">
<stop stop-color="#92A3FD"/>
<stop offset="1" stop-color="#9DCEFF"/>
</linearGradient>
</defs>
</svg>
